<svg xmlns="http://www.w3.org/2000/svg" width="800" height="200" viewBox="0 0 800 200">
  <!-- Background -->
  <rect width="800" height="200" fill="#f5f1e7" stroke="#3b2f2f" stroke-width="4" rx="20" ry="20"/>
  
  <!-- Ornamental corners -->
  <path d="M20,20 C40,40 60,0 80,20" stroke="#3b2f2f" stroke-width="2" fill="none"/>
  <path d="M720,20 C740,40 760,0 780,20" stroke="#3b2f2f" stroke-width="2" fill="none"/>
  <path d="M20,180 C40,160 60,200 80,180" stroke="#3b2f2f" stroke-width="2" fill="none"/>
  <path d="M720,180 C740,160 760,200 780,180" stroke="#3b2f2f" stroke-width="2" fill="none"/>
  
  <!-- Main text -->
  <text x="400" y="120" font-family="Georgia, serif" font-size="48" fill="#3b2f2f" text-anchor="middle" font-weight="bold">
    Principia Computatoria
  </text>
  
  <!-- Decorative line under text -->
  <line x1="200" y1="140" x2="600" y2="140" stroke="#3b2f2f" stroke-width="2"/>
  
  <!-- Small computation symbols -->
  <circle cx="200" cy="60" r="12" fill="none" stroke="#3b2f2f" stroke-width="2"/>
  <path d="M188,60 L212,60 M200,48 L200,72" stroke="#3b2f2f" stroke-width="1.5"/>
  <circle cx="600" cy="60" r="12" fill="none" stroke="#3b2f2f" stroke-width="2"/>
  <path d="M588,60 L612,60 M600,48 L600,72" stroke="#3b2f2f" stroke-width="1.5"/>
</svg>
